<svg xmlns="http://www.w3.org/2000/svg" xmlns:xlink="http://www.w3.org/1999/xlink" version="1.1" class="marks" width="399.734375" height="400" viewBox="0 0 399.734375 400"><rect width="399.734375" height="400" fill="#ffffff"/><g fill="none" stroke-miterlimit="10" transform="translate(85,2)"><g class="mark-group role-frame root" role="graphics-object" aria-roledescription="group mark container"><g transform="translate(0,0)"><path class="background" aria-hidden="true" d="M0,0h311.734375v254h-311.734375Z" stroke-width="0"/><g><g class="mark-group role-axis" aria-hidden="true"><g transform="translate(0.5,254.5)"><path class="background" aria-hidden="true" d="M0,0h0v0h0Z" pointer-events="none"/><g><g class="mark-rule role-axis-grid" pointer-events="none"><line transform="translate(0,-254)" x2="0" y2="254" stroke="#e6eaf1" stroke-width="1" opacity="1"/><line transform="translate(26,-254)" x2="0" y2="254" stroke="#e6eaf1" stroke-width="1" opacity="1"/><line transform="translate(52,-254)" x2="0" y2="254" stroke="#e6eaf1" stroke-width="1" opacity="1"/><line transform="translate(78,-254)" x2="0" y2="254" stroke="#e6eaf1" stroke-width="1" opacity="1"/><line transform="translate(104,-254)" x2="0" y2="254" stroke="#e6eaf1" stroke-width="1" opacity="1"/><line transform="translate(130,-254)" x2="0" y2="254" stroke="#e6eaf1" stroke-width="1" opacity="1"/><line transform="translate(156,-254)" x2="0" y2="254" stroke="#e6eaf1" stroke-width="1" opacity="1"/><line transform="translate(182,-254)" x2="0" y2="254" stroke="#e6eaf1" stroke-width="1" opacity="1"/><line transform="translate(208,-254)" x2="0" y2="254" stroke="#e6eaf1" stroke-width="1" opacity="1"/><line transform="translate(234,-254)" x2="0" y2="254" stroke="#e6eaf1" stroke-width="1" opacity="1"/><line transform="translate(260,-254)" x2="0" y2="254" stroke="#e6eaf1" stroke-width="1" opacity="1"/><line transform="translate(286,-254)" x2="0" y2="254" stroke="#e6eaf1" stroke-width="1" opacity="1"/><line transform="translate(312,-254)" x2="0" y2="254" stroke="#e6eaf1" stroke-width="1" opacity="1"/></g></g><path class="foreground" aria-hidden="true" d="" pointer-events="none" display="none"/></g></g><g class="mark-group role-axis" aria-hidden="true"><g transform="translate(0.5,0.5)"><path class="background" aria-hidden="true" d="M0,0h0v0h0Z" pointer-events="none"/><g><g class="mark-rule role-axis-grid" pointer-events="none"><line transform="translate(0,254)" x2="311.734375" y2="0" stroke="#e6eaf1" stroke-width="1" opacity="1"/><line transform="translate(0,239)" x2="311.734375" y2="0" stroke="#e6eaf1" stroke-width="1" opacity="1"/><line transform="translate(0,230)" x2="311.734375" y2="0" stroke="#e6eaf1" stroke-width="1" opacity="1"/><line transform="translate(0,223)" x2="311.734375" y2="0" stroke="#e6eaf1" stroke-width="1" opacity="1"/><line transform="translate(0,218)" x2="311.734375" y2="0" stroke="#e6eaf1" stroke-width="1" opacity="1"/><line transform="translate(0,214)" x2="311.734375" y2="0" stroke="#e6eaf1" stroke-width="1" opacity="1"/><line transform="translate(0,211)" x2="311.734375" y2="0" stroke="#e6eaf1" stroke-width="1" opacity="1"/><line transform="translate(0,208)" x2="311.734375" y2="0" stroke="#e6eaf1" stroke-width="1" opacity="1"/><line transform="translate(0,206)" x2="311.734375" y2="0" stroke="#e6eaf1" stroke-width="1" opacity="1"/><line transform="translate(0,203)" x2="311.734375" y2="0" stroke="#e6eaf1" stroke-width="1" opacity="1"/><line transform="translate(0,188)" x2="311.734375" y2="0" stroke="#e6eaf1" stroke-width="1" opacity="1"/><line transform="translate(0,179)" x2="311.734375" y2="0" stroke="#e6eaf1" stroke-width="1" opacity="1"/><line transform="translate(0,173)" x2="311.734375" y2="0" stroke="#e6eaf1" stroke-width="1" opacity="1"/><line transform="translate(0,168)" x2="311.734375" y2="0" stroke="#e6eaf1" stroke-width="1" opacity="1"/><line transform="translate(0,164)" x2="311.734375" y2="0" stroke="#e6eaf1" stroke-width="1" opacity="1"/><line transform="translate(0,160)" x2="311.734375" y2="0" stroke="#e6eaf1" stroke-width="1" opacity="1"/><line transform="translate(0,157)" x2="311.734375" y2="0" stroke="#e6eaf1" stroke-width="1" opacity="1"/><line transform="translate(0,155)" x2="311.734375" y2="0" stroke="#e6eaf1" stroke-width="1" opacity="1"/><line transform="translate(0,152)" x2="311.734375" y2="0" stroke="#e6eaf1" stroke-width="1" opacity="1"/><line transform="translate(0,137)" x2="311.734375" y2="0" stroke="#e6eaf1" stroke-width="1" opacity="1"/><line transform="translate(0,128)" x2="311.734375" y2="0" stroke="#e6eaf1" stroke-width="1" opacity="1"/><line transform="translate(0,122)" x2="311.734375" y2="0" stroke="#e6eaf1" stroke-width="1" opacity="1"/><line transform="translate(0,117)" x2="311.734375" y2="0" stroke="#e6eaf1" stroke-width="1" opacity="1"/><line transform="translate(0,113)" x2="311.734375" y2="0" stroke="#e6eaf1" stroke-width="1" opacity="1"/><line transform="translate(0,109)" x2="311.734375" y2="0" stroke="#e6eaf1" stroke-width="1" opacity="1"/><line transform="translate(0,107)" x2="311.734375" y2="0" stroke="#e6eaf1" stroke-width="1" opacity="1"/><line transform="translate(0,104)" x2="311.734375" y2="0" stroke="#e6eaf1" stroke-width="1" opacity="1"/><line transform="translate(0,102)" x2="311.734375" y2="0" stroke="#e6eaf1" stroke-width="1" opacity="1"/><line transform="translate(0,86)" x2="311.734375" y2="0" stroke="#e6eaf1" stroke-width="1" opacity="1"/><line transform="translate(0,77)" x2="311.734375" y2="0" stroke="#e6eaf1" stroke-width="1" opacity="1"/><line transform="translate(0,71)" x2="311.734375" y2="0" stroke="#e6eaf1" stroke-width="1" opacity="1"/><line transform="translate(0,66)" x2="311.734375" y2="0" stroke="#e6eaf1" stroke-width="1" opacity="1"/><line transform="translate(0,62)" x2="311.734375" y2="0" stroke="#e6eaf1" stroke-width="1" opacity="1"/><line transform="translate(0,59)" x2="311.734375" y2="0" stroke="#e6eaf1" stroke-width="1" opacity="1"/><line transform="translate(0,56)" x2="311.734375" y2="0" stroke="#e6eaf1" stroke-width="1" opacity="1"/><line transform="translate(0,53)" x2="311.734375" y2="0" stroke="#e6eaf1" stroke-width="1" opacity="1"/><line transform="translate(0,51)" x2="311.734375" y2="0" stroke="#e6eaf1" stroke-width="1" opacity="1"/><line transform="translate(0,36)" x2="311.734375" y2="0" stroke="#e6eaf1" stroke-width="1" opacity="1"/><line transform="translate(0,27)" x2="311.734375" y2="0" stroke="#e6eaf1" stroke-width="1" opacity="1"/><line transform="translate(0,20)" x2="311.734375" y2="0" stroke="#e6eaf1" stroke-width="1" opacity="1"/><line transform="translate(0,15)" x2="311.734375" y2="0" stroke="#e6eaf1" stroke-width="1" opacity="1"/><line transform="translate(0,11)" x2="311.734375" y2="0" stroke="#e6eaf1" stroke-width="1" opacity="1"/><line transform="translate(0,8)" x2="311.734375" y2="0" stroke="#e6eaf1" stroke-width="1" opacity="1"/><line transform="translate(0,5)" x2="311.734375" y2="0" stroke="#e6eaf1" stroke-width="1" opacity="1"/><line transform="translate(0,2)" x2="311.734375" y2="0" stroke="#e6eaf1" stroke-width="1" opacity="1"/><line transform="translate(0,0)" x2="311.734375" y2="0" stroke="#e6eaf1" stroke-width="1" opacity="1"/></g></g><path class="foreground" aria-hidden="true" d="" pointer-events="none" display="none"/></g></g><g class="mark-group role-axis" role="graphics-symbol" aria-roledescription="axis" aria-label="X-axis titled 'Number of Validated Messages' for a log scale with values from 2 to 8,192"><g transform="translate(0.5,254.5)"><path class="background" aria-hidden="true" d="M0,0h0v0h0Z" pointer-events="none"/><g><g class="mark-text role-axis-label" pointer-events="none"><text text-anchor="start" transform="translate(-1,25)" font-family="&quot;Source Sans&quot;, sans-serif" font-size="12px" font-style="normal" font-weight="400" fill="#808495" opacity="1">2</text><text text-anchor="middle" transform="translate(25.977864583333336,25)" font-family="&quot;Source Sans&quot;, sans-serif" font-size="12px" font-style="normal" font-weight="400" fill="#808495" opacity="0">4</text><text text-anchor="middle" transform="translate(51.955729166666664,25)" font-family="&quot;Source Sans&quot;, sans-serif" font-size="12px" font-style="normal" font-weight="400" fill="#808495" opacity="1">8</text><text text-anchor="middle" transform="translate(77.93359375,25)" font-family="&quot;Source Sans&quot;, sans-serif" font-size="12px" font-style="normal" font-weight="400" fill="#808495" opacity="0">16</text><text text-anchor="middle" transform="translate(103.91145833333334,25)" font-family="&quot;Source Sans&quot;, sans-serif" font-size="12px" font-style="normal" font-weight="400" fill="#808495" opacity="1">32</text><text text-anchor="middle" transform="translate(129.88932291666666,25)" font-family="&quot;Source Sans&quot;, sans-serif" font-size="12px" font-style="normal" font-weight="400" fill="#808495" opacity="0">64</text><text text-anchor="middle" transform="translate(155.8671875,25)" font-family="&quot;Source Sans&quot;, sans-serif" font-size="12px" font-style="normal" font-weight="400" fill="#808495" opacity="1">128</text><text text-anchor="middle" transform="translate(181.84505208333334,25)" font-family="&quot;Source Sans&quot;, sans-serif" font-size="12px" font-style="normal" font-weight="400" fill="#808495" opacity="0">256</text><text text-anchor="middle" transform="translate(207.82291666666669,25)" font-family="&quot;Source Sans&quot;, sans-serif" font-size="12px" font-style="normal" font-weight="400" fill="#808495" opacity="1">512</text><text text-anchor="middle" transform="translate(233.80078125,25)" font-family="&quot;Source Sans&quot;, sans-serif" font-size="12px" font-style="normal" font-weight="400" fill="#808495" opacity="0">1,024</text><text text-anchor="middle" transform="translate(259.77864583333337,25)" font-family="&quot;Source Sans&quot;, sans-serif" font-size="12px" font-style="normal" font-weight="400" fill="#808495" opacity="1">2,048</text><text text-anchor="middle" transform="translate(285.75651041666663,25)" font-family="&quot;Source Sans&quot;, sans-serif" font-size="12px" font-style="normal" font-weight="400" fill="#808495" opacity="0">4,096</text><text text-anchor="end" transform="translate(312.734375,25)" font-family="&quot;Source Sans&quot;, sans-serif" font-size="12px" font-style="normal" font-weight="400" fill="#808495" opacity="1">8,192</text></g><g class="mark-text role-axis-title" pointer-events="none"><text text-anchor="middle" transform="translate(155.8671875,54)" font-family="&quot;Source Sans&quot;, sans-serif" font-size="14px" font-style="normal" font-weight="400" fill="#808495" opacity="1">Number of Validated Messages</text></g></g><path class="foreground" aria-hidden="true" d="" pointer-events="none" display="none"/></g></g><g class="mark-group role-axis" role="graphics-symbol" aria-roledescription="axis" aria-label="Y-axis titled 'False Positive Ratio' for a log scale with values from 0.00001 to 1"><g transform="translate(0.5,0.5)"><path class="background" aria-hidden="true" d="M0,0h0v0h0Z" pointer-events="none"/><g><g class="mark-text role-axis-label" pointer-events="none"><text text-anchor="end" transform="translate(-16,252)" font-family="&quot;Source Sans&quot;, sans-serif" font-size="12px" font-style="normal" font-weight="400" fill="#808495" opacity="1">0.00001</text><text text-anchor="end" transform="translate(-16,242.70767622026975)" font-family="&quot;Source Sans&quot;, sans-serif" font-size="12px" font-style="normal" font-weight="400" fill="#808495" opacity="0">0.00002</text><text text-anchor="end" transform="translate(-16,233.76224026024116)" font-family="&quot;Source Sans&quot;, sans-serif" font-size="12px" font-style="normal" font-weight="400" fill="#808495" opacity="1"/><text text-anchor="end" transform="translate(-16,227.41535244053952)" font-family="&quot;Source Sans&quot;, sans-serif" font-size="12px" font-style="normal" font-weight="400" fill="#808495" opacity="1"/><text text-anchor="end" transform="translate(-16,222.4923237797302)" font-family="&quot;Source Sans&quot;, sans-serif" font-size="12px" font-style="normal" font-weight="400" fill="#808495" opacity="1"/><text text-anchor="end" transform="translate(-16,218.4699164805109)" font-family="&quot;Source Sans&quot;, sans-serif" font-size="12px" font-style="normal" font-weight="400" fill="#808495" opacity="1"/><text text-anchor="end" transform="translate(-16,215.06901956727575)" font-family="&quot;Source Sans&quot;, sans-serif" font-size="12px" font-style="normal" font-weight="400" fill="#808495" opacity="1"/><text text-anchor="end" transform="translate(-16,212.12302866080924)" font-family="&quot;Source Sans&quot;, sans-serif" font-size="12px" font-style="normal" font-weight="400" fill="#808495" opacity="1"/><text text-anchor="end" transform="translate(-16,209.52448052048229)" font-family="&quot;Source Sans&quot;, sans-serif" font-size="12px" font-style="normal" font-weight="400" fill="#808495" opacity="1"/><text text-anchor="end" transform="translate(-16,207.2)" font-family="&quot;Source Sans&quot;, sans-serif" font-size="12px" font-style="normal" font-weight="400" fill="#808495" opacity="1">0.0001</text><text text-anchor="end" transform="translate(-16,191.90767622026976)" font-family="&quot;Source Sans&quot;, sans-serif" font-size="12px" font-style="normal" font-weight="400" fill="#808495" opacity="0">0.0002</text><text text-anchor="end" transform="translate(-16,182.96224026024115)" font-family="&quot;Source Sans&quot;, sans-serif" font-size="12px" font-style="normal" font-weight="400" fill="#808495" opacity="1"/><text text-anchor="end" transform="translate(-16,176.6153524405395)" font-family="&quot;Source Sans&quot;, sans-serif" font-size="12px" font-style="normal" font-weight="400" fill="#808495" opacity="1"/><text text-anchor="end" transform="translate(-16,171.69232377973023)" font-family="&quot;Source Sans&quot;, sans-serif" font-size="12px" font-style="normal" font-weight="400" fill="#808495" opacity="1"/><text text-anchor="end" transform="translate(-16,167.6699164805109)" font-family="&quot;Source Sans&quot;, sans-serif" font-size="12px" font-style="normal" font-weight="400" fill="#808495" opacity="1"/><text text-anchor="end" transform="translate(-16,164.26901956727573)" font-family="&quot;Source Sans&quot;, sans-serif" font-size="12px" font-style="normal" font-weight="400" fill="#808495" opacity="1"/><text text-anchor="end" transform="translate(-16,161.32302866080926)" font-family="&quot;Source Sans&quot;, sans-serif" font-size="12px" font-style="normal" font-weight="400" fill="#808495" opacity="1"/><text text-anchor="end" transform="translate(-16,158.7244805204823)" font-family="&quot;Source Sans&quot;, sans-serif" font-size="12px" font-style="normal" font-weight="400" fill="#808495" opacity="1"/><text text-anchor="end" transform="translate(-16,156.4)" font-family="&quot;Source Sans&quot;, sans-serif" font-size="12px" font-style="normal" font-weight="400" fill="#808495" opacity="1">0.001</text><text text-anchor="end" transform="translate(-16,141.10767622026975)" font-family="&quot;Source Sans&quot;, sans-serif" font-size="12px" font-style="normal" font-weight="400" fill="#808495" opacity="0">0.002</text><text text-anchor="end" transform="translate(-16,132.16224026024116)" font-family="&quot;Source Sans&quot;, sans-serif" font-size="12px" font-style="normal" font-weight="400" fill="#808495" opacity="1"/><text text-anchor="end" transform="translate(-16,125.81535244053951)" font-family="&quot;Source Sans&quot;, sans-serif" font-size="12px" font-style="normal" font-weight="400" fill="#808495" opacity="1"/><text text-anchor="end" transform="translate(-16,120.89232377973025)" font-family="&quot;Source Sans&quot;, sans-serif" font-size="12px" font-style="normal" font-weight="400" fill="#808495" opacity="1"/><text text-anchor="end" transform="translate(-16,116.86991648051091)" font-family="&quot;Source Sans&quot;, sans-serif" font-size="12px" font-style="normal" font-weight="400" fill="#808495" opacity="1"/><text text-anchor="end" transform="translate(-16,113.46901956727574)" font-family="&quot;Source Sans&quot;, sans-serif" font-size="12px" font-style="normal" font-weight="400" fill="#808495" opacity="1"/><text text-anchor="end" transform="translate(-16,110.52302866080927)" font-family="&quot;Source Sans&quot;, sans-serif" font-size="12px" font-style="normal" font-weight="400" fill="#808495" opacity="1"/><text text-anchor="end" transform="translate(-16,107.92448052048229)" font-family="&quot;Source Sans&quot;, sans-serif" font-size="12px" font-style="normal" font-weight="400" fill="#808495" opacity="1"/><text text-anchor="end" transform="translate(-16,105.59999999999998)" font-family="&quot;Source Sans&quot;, sans-serif" font-size="12px" font-style="normal" font-weight="400" fill="#808495" opacity="1">0.01</text><text text-anchor="end" transform="translate(-16,90.30767622026977)" font-family="&quot;Source Sans&quot;, sans-serif" font-size="12px" font-style="normal" font-weight="400" fill="#808495" opacity="0">0.02</text><text text-anchor="end" transform="translate(-16,81.36224026024112)" font-family="&quot;Source Sans&quot;, sans-serif" font-size="12px" font-style="normal" font-weight="400" fill="#808495" opacity="1"/><text text-anchor="end" transform="translate(-16,75.01535244053952)" font-family="&quot;Source Sans&quot;, sans-serif" font-size="12px" font-style="normal" font-weight="400" fill="#808495" opacity="1"/><text text-anchor="end" transform="translate(-16,70.09232377973024)" font-family="&quot;Source Sans&quot;, sans-serif" font-size="12px" font-style="normal" font-weight="400" fill="#808495" opacity="1"/><text text-anchor="end" transform="translate(-16,66.06991648051091)" font-family="&quot;Source Sans&quot;, sans-serif" font-size="12px" font-style="normal" font-weight="400" fill="#808495" opacity="1"/><text text-anchor="end" transform="translate(-16,62.66901956727577)" font-family="&quot;Source Sans&quot;, sans-serif" font-size="12px" font-style="normal" font-weight="400" fill="#808495" opacity="1"/><text text-anchor="end" transform="translate(-16,59.72302866080928)" font-family="&quot;Source Sans&quot;, sans-serif" font-size="12px" font-style="normal" font-weight="400" fill="#808495" opacity="1"/><text text-anchor="end" transform="translate(-16,57.12448052048228)" font-family="&quot;Source Sans&quot;, sans-serif" font-size="12px" font-style="normal" font-weight="400" fill="#808495" opacity="1"/><text text-anchor="end" transform="translate(-16,54.79999999999999)" font-family="&quot;Source Sans&quot;, sans-serif" font-size="12px" font-style="normal" font-weight="400" fill="#808495" opacity="1">0.1</text><text text-anchor="end" transform="translate(-16,39.507676220269744)" font-family="&quot;Source Sans&quot;, sans-serif" font-size="12px" font-style="normal" font-weight="400" fill="#808495" opacity="0">0.2</text><text text-anchor="end" transform="translate(-16,30.56224026024114)" font-family="&quot;Source Sans&quot;, sans-serif" font-size="12px" font-style="normal" font-weight="400" fill="#808495" opacity="1"/><text text-anchor="end" transform="translate(-16,24.215352440539505)" font-family="&quot;Source Sans&quot;, sans-serif" font-size="12px" font-style="normal" font-weight="400" fill="#808495" opacity="1"/><text text-anchor="end" transform="translate(-16,19.292323779730243)" font-family="&quot;Source Sans&quot;, sans-serif" font-size="12px" font-style="normal" font-weight="400" fill="#808495" opacity="1"/><text text-anchor="end" transform="translate(-16,15.269916480510897)" font-family="&quot;Source Sans&quot;, sans-serif" font-size="12px" font-style="normal" font-weight="400" fill="#808495" opacity="1"/><text text-anchor="end" transform="translate(-16,11.869019567275782)" font-family="&quot;Source Sans&quot;, sans-serif" font-size="12px" font-style="normal" font-weight="400" fill="#808495" opacity="1"/><text text-anchor="end" transform="translate(-16,8.92302866080929)" font-family="&quot;Source Sans&quot;, sans-serif" font-size="12px" font-style="normal" font-weight="400" fill="#808495" opacity="1"/><text text-anchor="end" transform="translate(-16,6.324480520482319)" font-family="&quot;Source Sans&quot;, sans-serif" font-size="12px" font-style="normal" font-weight="400" fill="#808495" opacity="1"/><text text-anchor="end" transform="translate(-16,8)" font-family="&quot;Source Sans&quot;, sans-serif" font-size="12px" font-style="normal" font-weight="400" fill="#808495" opacity="1">1</text></g><g class="mark-text role-axis-title" pointer-events="none"><text text-anchor="middle" transform="translate(-70.77619934082031,127) rotate(-90) translate(0,-3)" font-family="&quot;Source Sans&quot;, sans-serif" font-size="14px" font-style="normal" font-weight="400" fill="#808495" opacity="1">False Positive Ratio</text></g></g><path class="foreground" aria-hidden="true" d="" pointer-events="none" display="none"/></g></g><g class="mark-group role-scope layer_0_pathgroup" role="graphics-object" aria-roledescription="group mark container"><g transform="translate(0,0)"><path class="background" aria-hidden="true" d="M0,0h311.734375v254h-311.734375Z"/><g><g class="mark-line role-mark layer_0_marks" role="graphics-object" aria-roledescription="line mark container"><path aria-label="Number of Validated Messages: 2; False Positive Ratio: 0.0000305173452944; system_type: Average Error; num_validation_messages: 2; false_positive_rate: 0.0000305173452944" role="graphics-symbol" aria-roledescription="line mark" d="M0,229.385L25.978,214.093L51.956,198.801L77.934,183.51L103.911,168.221L129.889,152.934L155.867,137.652L181.845,122.381L207.823,107.132L233.801,91.926L259.779,76.805L285.757,61.855L311.734,47.241" stroke="#0068c9" stroke-width="2"/></g></g><path class="foreground" aria-hidden="true" d="" display="none"/></g><g transform="translate(0,0)"><path class="background" aria-hidden="true" d="M0,0h311.734375v254h-311.734375Z"/><g><g class="mark-line role-mark layer_0_marks" role="graphics-object" aria-roledescription="line mark container"><path aria-label="Number of Validated Messages: 2; False Positive Ratio: 0.00003420000342; system_type: RMID; num_validation_messages: 2; false_positive_rate: 0.00003420000342" role="graphics-symbol" aria-roledescription="line mark" d="M0,226.871L25.978,213.746L51.956,197.48L77.934,185.725L103.911,167.728L129.889,151.065L155.867,140.996L181.845,122.467L207.823,110.581L233.801,89.241L259.779,76.032L285.757,59.809L311.734,45.674" stroke="#83c9ff" stroke-width="2"/></g></g><path class="foreground" aria-hidden="true" d="" display="none"/></g><g transform="translate(0,0)"><path class="background" aria-hidden="true" d="M0,0h311.734375v254h-311.734375Z"/><g><g class="mark-line role-mark layer_0_marks" role="graphics-object" aria-roledescription="line mark container"><path aria-label="Number of Validated Messages: 2; False Positive Ratio: 0.00003160000316; system_type: RSID; num_validation_messages: 2; false_positive_rate: 0.00003160000316" role="graphics-symbol" aria-roledescription="line mark" d="M0,228.616L25.978,216.632L51.956,197.892L77.934,184.181L103.911,171.75L129.889,153.448L155.867,136.447L181.845,120.923L207.823,106.277L233.801,91.694L259.779,76.258L285.757,60.681L311.734,47.132" stroke="#ff2b2b" stroke-width="2"/></g></g><path class="foreground" aria-hidden="true" d="" display="none"/></g></g><g class="mark-symbol role-mark layer_1_marks" role="graphics-object" aria-roledescription="symbol mark container"><path aria-label="Number of Validated Messages: 2; False Positive Ratio: 0.0000305173452944; system_type: Average Error; num_validation_messages: 2; false_positive_rate: 0.0000305173452944" role="graphics-symbol" aria-roledescription="point" transform="translate(0,229.38502501751617)" d="M2.739,0A2.739,2.739,0,1,1,-2.739,0A2.739,2.739,0,1,1,2.739,0" fill="#0068c9" stroke-width="2" opacity="1"/><path aria-label="Number of Validated Messages: 4; False Positive Ratio: 0.0000610337592803; system_type: Average Error; num_validation_messages: 4; false_positive_rate: 0.0000610337592803" role="graphics-symbol" aria-roledescription="point" transform="translate(25.977864583333336,214.09303787962676)" d="M2.739,0A2.739,2.739,0,1,1,-2.739,0A2.739,2.739,0,1,1,2.739,0" fill="#0068c9" stroke-width="2" opacity="1"/><path aria-label="Number of Validated Messages: 8; False Positive Ratio: 0.000122063793441; system_type: Average Error; num_validation_messages: 8; false_positive_rate: 0.000122063793441" role="graphics-symbol" aria-roledescription="point" transform="translate(51.955729166666664,198.801387378446)" d="M2.739,0A2.739,2.739,0,1,1,-2.739,0A2.739,2.739,0,1,1,2.739,0" fill="#0068c9" stroke-width="2" opacity="1"/><path aria-label="Number of Validated Messages: 16; False Positive Ratio: 0.000244112687312; system_type: Average Error; num_validation_messages: 16; false_positive_rate: 0.000244112687312" role="graphics-symbol" aria-roledescription="point" transform="translate(77.93359375,183.51041013526083)" d="M2.739,0A2.739,2.739,0,1,1,-2.739,0A2.739,2.739,0,1,1,2.739,0" fill="#0068c9" stroke-width="2" opacity="1"/><path aria-label="Number of Validated Messages: 32; False Positive Ratio: 0.00048816578362; system_type: Average Error; num_validation_messages: 32; false_positive_rate: 0.00048816578362" role="graphics-symbol" aria-roledescription="point" transform="translate(103.91145833333334,168.22077934642124)" d="M2.739,0A2.739,2.739,0,1,1,-2.739,0A2.739,2.739,0,1,1,2.739,0" fill="#0068c9" stroke-width="2" opacity="1"/><path aria-label="Number of Validated Messages: 64; False Positive Ratio: 0.000976093261408; system_type: Average Error; num_validation_messages: 64; false_positive_rate: 0.000976093261408" role="graphics-symbol" aria-roledescription="point" transform="translate(129.88932291666666,152.93384121972286)" d="M2.739,0A2.739,2.739,0,1,1,-2.739,0A2.739,2.739,0,1,1,2.739,0" fill="#0068c9" stroke-width="2" opacity="1"/><path aria-label="Number of Validated Messages: 128; False Positive Ratio: 0.00195123376476; system_type: Average Error; num_validation_messages: 128; false_positive_rate: 0.00195123376476" role="graphics-symbol" aria-roledescription="point" transform="translate(155.8671875,137.65228743103393)" d="M2.739,0A2.739,2.739,0,1,1,-2.739,0A2.739,2.739,0,1,1,2.739,0" fill="#0068c9" stroke-width="2" opacity="1"/><path aria-label="Number of Validated Messages: 256; False Positive Ratio: 0.00389866021632; system_type: Average Error; num_validation_messages: 256; false_positive_rate: 0.00389866021632" role="graphics-symbol" aria-roledescription="point" transform="translate(181.84505208333334,122.38149837327722)" d="M2.739,0A2.739,2.739,0,1,1,-2.739,0A2.739,2.739,0,1,1,2.739,0" fill="#0068c9" stroke-width="2" opacity="1"/><path aria-label="Number of Validated Messages: 512; False Positive Ratio: 0.00778212088115; system_type: Average Error; num_validation_messages: 512; false_positive_rate: 0.00778212088115" role="graphics-symbol" aria-roledescription="point" transform="translate(207.82291666666669,107.13222299708329)" d="M2.739,0A2.739,2.739,0,1,1,-2.739,0A2.739,2.739,0,1,1,2.739,0" fill="#0068c9" stroke-width="2" opacity="1"/><path aria-label="Number of Validated Messages: 1024; False Positive Ratio: 0.0155036803569; system_type: Average Error; num_validation_messages: 1024; false_positive_rate: 0.0155036803569" role="graphics-symbol" aria-roledescription="point" transform="translate(233.80078125,91.92591186305496)" d="M2.739,0A2.739,2.739,0,1,1,-2.739,0A2.739,2.739,0,1,1,2.739,0" fill="#0068c9" stroke-width="2" opacity="1"/><path aria-label="Number of Validated Messages: 2048; False Positive Ratio: 0.0307669966092; system_type: Average Error; num_validation_messages: 2048; false_positive_rate: 0.0307669966092" role="graphics-symbol" aria-roledescription="point" transform="translate(259.77864583333337,76.80527673374453)" d="M2.739,0A2.739,2.739,0,1,1,-2.739,0A2.739,2.739,0,1,1,2.739,0" fill="#0068c9" stroke-width="2" opacity="1"/><path aria-label="Number of Validated Messages: 4096; False Positive Ratio: 0.060587385138; system_type: Average Error; num_validation_messages: 4096; false_positive_rate: 0.060587385138" role="graphics-symbol" aria-roledescription="point" transform="translate(285.75651041666663,61.854983762825036)" d="M2.739,0A2.739,2.739,0,1,1,-2.739,0A2.739,2.739,0,1,1,2.739,0" fill="#0068c9" stroke-width="2" opacity="1"/><path aria-label="Number of Validated Messages: 8192; False Positive Ratio: 0.117503939038; system_type: Average Error; num_validation_messages: 8192; false_positive_rate: 0.117503939038" role="graphics-symbol" aria-roledescription="point" transform="translate(311.734375,47.24133678285361)" d="M2.739,0A2.739,2.739,0,1,1,-2.739,0A2.739,2.739,0,1,1,2.739,0" fill="#0068c9" stroke-width="2" opacity="1"/><path aria-label="Number of Validated Messages: 2; False Positive Ratio: 0.00003420000342; system_type: RMID; num_validation_messages: 2; false_positive_rate: 0.00003420000342" role="graphics-symbol" aria-roledescription="point" transform="translate(0,226.87147160613227)" d="M2.739,0A2.739,2.739,0,1,1,-2.739,0A2.739,2.739,0,1,1,2.739,0" fill="#83c9ff" stroke-width="2" opacity="1"/><path aria-label="Number of Validated Messages: 4; False Positive Ratio: 0.0000620000062; system_type: RMID; num_validation_messages: 4; false_positive_rate: 0.0000620000062" role="graphics-symbol" aria-roledescription="point" transform="translate(25.977864583333336,213.74649996727263)" d="M2.739,0A2.739,2.739,0,1,1,-2.739,0A2.739,2.739,0,1,1,2.739,0" fill="#83c9ff" stroke-width="2" opacity="1"/><path aria-label="Number of Validated Messages: 8; False Positive Ratio: 0.00012960001296; system_type: RMID; num_validation_messages: 8; false_positive_rate: 0.00012960001296" role="graphics-symbol" aria-roledescription="point" transform="translate(51.955729166666664,197.47966371582774)" d="M2.739,0A2.739,2.739,0,1,1,-2.739,0A2.739,2.739,0,1,1,2.739,0" fill="#83c9ff" stroke-width="2" opacity="1"/><path aria-label="Number of Validated Messages: 16; False Positive Ratio: 0.00022080002208; system_type: RMID; num_validation_messages: 16; false_positive_rate: 0.00022080002208" role="graphics-symbol" aria-roledescription="point" transform="translate(77.93359375,185.72484508568036)" d="M2.739,0A2.739,2.739,0,1,1,-2.739,0A2.739,2.739,0,1,1,2.739,0" fill="#83c9ff" stroke-width="2" opacity="1"/><path aria-label="Number of Validated Messages: 32; False Positive Ratio: 0.00049920004992; system_type: RMID; num_validation_messages: 32; false_positive_rate: 0.00049920004992" role="graphics-symbol" aria-roledescription="point" transform="translate(103.91145833333334,167.72764929872628)" d="M2.739,0A2.739,2.739,0,1,1,-2.739,0A2.739,2.739,0,1,1,2.739,0" fill="#83c9ff" stroke-width="2" opacity="1"/><path aria-label="Number of Validated Messages: 64; False Positive Ratio: 0.00106240010624; system_type: RMID; num_validation_messages: 64; false_positive_rate: 0.00106240010624" role="graphics-symbol" aria-roledescription="point" transform="translate(129.88932291666666,151.06456424296786)" d="M2.739,0A2.739,2.739,0,1,1,-2.739,0A2.739,2.739,0,1,1,2.739,0" fill="#83c9ff" stroke-width="2" opacity="1"/><path aria-label="Number of Validated Messages: 128; False Positive Ratio: 0.00167680016768; system_type: RMID; num_validation_messages: 128; false_positive_rate: 0.00167680016768" role="graphics-symbol" aria-roledescription="point" transform="translate(155.8671875,140.9963495163596)" d="M2.739,0A2.739,2.739,0,1,1,-2.739,0A2.739,2.739,0,1,1,2.739,0" fill="#83c9ff" stroke-width="2" opacity="1"/><path aria-label="Number of Validated Messages: 256; False Positive Ratio: 0.00388350038835; system_type: RMID; num_validation_messages: 256; false_positive_rate: 0.00388350038835" role="graphics-symbol" aria-roledescription="point" transform="translate(181.84505208333334,122.46745367166403)" d="M2.739,0A2.739,2.739,0,1,1,-2.739,0A2.739,2.739,0,1,1,2.739,0" fill="#83c9ff" stroke-width="2" opacity="1"/><path aria-label="Number of Validated Messages: 512; False Positive Ratio: 0.0066560006656; system_type: RMID; num_validation_messages: 512; false_positive_rate: 0.0066560006656" role="graphics-symbol" aria-roledescription="point" transform="translate(207.82291666666669,110.58076147902463)" d="M2.739,0A2.739,2.739,0,1,1,-2.739,0A2.739,2.739,0,1,1,2.739,0" fill="#83c9ff" stroke-width="2" opacity="1"/><path aria-label="Number of Validated Messages: 1024; False Positive Ratio: 0.017510401751; system_type: RMID; num_validation_messages: 1024; false_positive_rate: 0.017510401751" role="graphics-symbol" aria-roledescription="point" transform="translate(233.80078125,89.24055758856015)" d="M2.739,0A2.739,2.739,0,1,1,-2.739,0A2.739,2.739,0,1,1,2.739,0" fill="#83c9ff" stroke-width="2" opacity="1"/><path aria-label="Number of Validated Messages: 2048; False Positive Ratio: 0.0318643031864; system_type: RMID; num_validation_messages: 2048; false_positive_rate: 0.0318643031864" role="graphics-symbol" aria-roledescription="point" transform="translate(259.77864583333337,76.03213517443909)" d="M2.739,0A2.739,2.739,0,1,1,-2.739,0A2.739,2.739,0,1,1,2.739,0" fill="#83c9ff" stroke-width="2" opacity="1"/><path aria-label="Number of Validated Messages: 4096; False Positive Ratio: 0.0664755066476; system_type: RMID; num_validation_messages: 4096; false_positive_rate: 0.0664755066476" role="graphics-symbol" aria-roledescription="point" transform="translate(285.75651041666663,59.80878787414035)" d="M2.739,0A2.739,2.739,0,1,1,-2.739,0A2.739,2.739,0,1,1,2.739,0" fill="#83c9ff" stroke-width="2" opacity="1"/><path aria-label="Number of Validated Messages: 8192; False Positive Ratio: 0.126156812616; system_type: RMID; num_validation_messages: 8192; false_positive_rate: 0.126156812616" role="graphics-symbol" aria-roledescription="point" transform="translate(311.734375,45.67373603879843)" d="M2.739,0A2.739,2.739,0,1,1,-2.739,0A2.739,2.739,0,1,1,2.739,0" fill="#83c9ff" stroke-width="2" opacity="1"/><path aria-label="Number of Validated Messages: 2; False Positive Ratio: 0.00003160000316; system_type: RSID; num_validation_messages: 2; false_positive_rate: 0.00003160000316" role="graphics-symbol" aria-roledescription="point" transform="translate(0,228.61589399676902)" d="M2.739,0A2.739,2.739,0,1,1,-2.739,0A2.739,2.739,0,1,1,2.739,0" fill="#ff2b2b" stroke-width="2" opacity="1"/><path aria-label="Number of Validated Messages: 4; False Positive Ratio: 0.00005440000544; system_type: RSID; num_validation_messages: 4; false_positive_rate: 0.00005440000544" role="graphics-symbol" aria-roledescription="point" transform="translate(25.977864583333336,216.63157368911638)" d="M2.739,0A2.739,2.739,0,1,1,-2.739,0A2.739,2.739,0,1,1,2.739,0" fill="#ff2b2b" stroke-width="2" opacity="1"/><path aria-label="Number of Validated Messages: 8; False Positive Ratio: 0.00012720001272; system_type: RSID; num_validation_messages: 8; false_positive_rate: 0.00012720001272" role="graphics-symbol" aria-roledescription="point" transform="translate(51.955729166666664,197.89205253911447)" d="M2.739,0A2.739,2.739,0,1,1,-2.739,0A2.739,2.739,0,1,1,2.739,0" fill="#ff2b2b" stroke-width="2" opacity="1"/><path aria-label="Number of Validated Messages: 16; False Positive Ratio: 0.00023680002368; system_type: RSID; num_validation_messages: 16; false_positive_rate: 0.00023680002368" role="graphics-symbol" aria-roledescription="point" transform="translate(77.93359375,184.1814075327993)" d="M2.739,0A2.739,2.739,0,1,1,-2.739,0A2.739,2.739,0,1,1,2.739,0" fill="#ff2b2b" stroke-width="2" opacity="1"/><path aria-label="Number of Validated Messages: 32; False Positive Ratio: 0.0004160000416; system_type: RSID; num_validation_messages: 32; false_positive_rate: 0.0004160000416" role="graphics-symbol" aria-roledescription="point" transform="translate(103.91145833333334,171.7500565979456)" d="M2.739,0A2.739,2.739,0,1,1,-2.739,0A2.739,2.739,0,1,1,2.739,0" fill="#ff2b2b" stroke-width="2" opacity="1"/><path aria-label="Number of Validated Messages: 64; False Positive Ratio: 0.00095360009536; system_type: RSID; num_validation_messages: 64; false_positive_rate: 0.00095360009536" role="graphics-symbol" aria-roledescription="point" transform="translate(129.88932291666666,153.44819268005915)" d="M2.739,0A2.739,2.739,0,1,1,-2.739,0A2.739,2.739,0,1,1,2.739,0" fill="#ff2b2b" stroke-width="2" opacity="1"/><path aria-label="Number of Validated Messages: 128; False Positive Ratio: 0.00206080020608; system_type: RSID; num_validation_messages: 128; false_positive_rate: 0.00206080020608" role="graphics-symbol" aria-roledescription="point" transform="translate(155.8671875,136.44697683325447)" d="M2.739,0A2.739,2.739,0,1,1,-2.739,0A2.739,2.739,0,1,1,2.739,0" fill="#ff2b2b" stroke-width="2" opacity="1"/><path aria-label="Number of Validated Messages: 256; False Positive Ratio: 0.00416510041651; system_type: RSID; num_validation_messages: 256; false_positive_rate: 0.00416510041651" role="graphics-symbol" aria-roledescription="point" transform="translate(181.84505208333334,120.92302580469463)" d="M2.739,0A2.739,2.739,0,1,1,-2.739,0A2.739,2.739,0,1,1,2.739,0" fill="#ff2b2b" stroke-width="2" opacity="1"/><path aria-label="Number of Validated Messages: 512; False Positive Ratio: 0.00808960080896; system_type: RSID; num_validation_messages: 512; false_positive_rate: 0.00808960080896" role="graphics-symbol" aria-roledescription="point" transform="translate(207.82291666666669,106.27730375892727)" d="M2.739,0A2.739,2.739,0,1,1,-2.739,0A2.739,2.739,0,1,1,2.739,0" fill="#ff2b2b" stroke-width="2" opacity="1"/><path aria-label="Number of Validated Messages: 1024; False Positive Ratio: 0.0156672015667; system_type: RSID; num_validation_messages: 1024; false_positive_rate: 0.0156672015667" role="graphics-symbol" aria-roledescription="point" transform="translate(233.80078125,91.69443531094754)" d="M2.739,0A2.739,2.739,0,1,1,-2.739,0A2.739,2.739,0,1,1,2.739,0" fill="#ff2b2b" stroke-width="2" opacity="1"/><path aria-label="Number of Validated Messages: 2048; False Positive Ratio: 0.0315392031539; system_type: RSID; num_validation_messages: 2048; false_positive_rate: 0.0315392031539" role="graphics-symbol" aria-roledescription="point" transform="translate(259.77864583333337,76.25838359825894)" d="M2.739,0A2.739,2.739,0,1,1,-2.739,0A2.739,2.739,0,1,1,2.739,0" fill="#ff2b2b" stroke-width="2" opacity="1"/><path aria-label="Number of Validated Messages: 4096; False Positive Ratio: 0.0638976063898; system_type: RSID; num_validation_messages: 4096; false_positive_rate: 0.0638976063898" role="graphics-symbol" aria-roledescription="point" transform="translate(285.75651041666663,60.681382840614354)" d="M2.739,0A2.739,2.739,0,1,1,-2.739,0A2.739,2.739,0,1,1,2.739,0" fill="#ff2b2b" stroke-width="2" opacity="1"/><path aria-label="Number of Validated Messages: 8192; False Positive Ratio: 0.118085111809; system_type: RSID; num_validation_messages: 8192; false_positive_rate: 0.118085111809" role="graphics-symbol" aria-roledescription="point" transform="translate(311.734375,47.13248662683563)" d="M2.739,0A2.739,2.739,0,1,1,-2.739,0A2.739,2.739,0,1,1,2.739,0" fill="#ff2b2b" stroke-width="2" opacity="1"/></g><g class="mark-group role-legend" role="graphics-symbol" aria-roledescription="legend" aria-label="Symbol legend titled 'System Type' for fill color and stroke color with 3 values: Average Error, RMID, RSID"><g transform="translate(0,329)"><path class="background" aria-hidden="true" d="M0,0h226v49h-226Z" pointer-events="none"/><g><g class="mark-group role-legend-entry"><g transform="translate(7,26)"><path class="background" aria-hidden="true" d="M0,0h0v0h0Z" pointer-events="none"/><g><g class="mark-group role-scope" role="graphics-object" aria-roledescription="group mark container"><g transform="translate(0,0)"><path class="background" aria-hidden="true" d="M0,0h96.54204559326172v16h-96.54204559326172Z" pointer-events="none" opacity="1"/><g><g class="mark-symbol role-legend-symbol" pointer-events="none"><path transform="translate(7,7)" d="M5,0A5,5,0,1,1,-5,0A5,5,0,1,1,5,0" fill="#0068c9" stroke="#0068c9" stroke-width="4" opacity="1"/></g><g class="mark-text role-legend-label" pointer-events="none"><text text-anchor="start" transform="translate(18,11)" font-family="&quot;Source Sans&quot;, sans-serif" font-size="14px" font-weight="400" fill="#808495" opacity="1">Average Error</text></g></g><path class="foreground" aria-hidden="true" d="" pointer-events="none" display="none"/></g><g transform="translate(107,0)"><path class="background" aria-hidden="true" d="M0,0h48.438127517700195v16h-48.438127517700195Z" pointer-events="none" opacity="1"/><g><g class="mark-symbol role-legend-symbol" pointer-events="none"><path transform="translate(7,7)" d="M5,0A5,5,0,1,1,-5,0A5,5,0,1,1,5,0" fill="#83c9ff" stroke="#83c9ff" stroke-width="4" opacity="1"/></g><g class="mark-text role-legend-label" pointer-events="none"><text text-anchor="start" transform="translate(18,11)" font-family="&quot;Source Sans&quot;, sans-serif" font-size="14px" font-weight="400" fill="#808495" opacity="1">RMID</text></g></g><path class="foreground" aria-hidden="true" d="" pointer-events="none" display="none"/></g><g transform="translate(166,0)"><path class="background" aria-hidden="true" d="M0,0h45.537841796875v16h-45.537841796875Z" pointer-events="none" opacity="1"/><g><g class="mark-symbol role-legend-symbol" pointer-events="none"><path transform="translate(7,7)" d="M5,0A5,5,0,1,1,-5,0A5,5,0,1,1,5,0" fill="#ff2b2b" stroke="#ff2b2b" stroke-width="4" opacity="1"/></g><g class="mark-text role-legend-label" pointer-events="none"><text text-anchor="start" transform="translate(18,11)" font-family="&quot;Source Sans&quot;, sans-serif" font-size="14px" font-weight="400" fill="#808495" opacity="1">RSID</text></g></g><path class="foreground" aria-hidden="true" d="" pointer-events="none" display="none"/></g></g></g><path class="foreground" aria-hidden="true" d="" pointer-events="none" display="none"/></g></g><g class="mark-text role-legend-title" pointer-events="none"><text text-anchor="start" transform="translate(7,18)" font-family="&quot;Source Sans&quot;, sans-serif" font-size="14px" font-style="normal" font-weight="400" fill="#808495" opacity="1">System Type</text></g></g><path class="foreground" aria-hidden="true" d="" pointer-events="none" display="none"/></g></g></g><path class="foreground" aria-hidden="true" d="" display="none"/></g></g></g></svg>